<svg xmlns="http://www.w3.org/2000/svg" xmlns:xlink="http://www.w3.org/1999/xlink"  width="254px" height="256px" viewBox="-17.932565689086914 -36.27290725708008 349.56488037109375 352.31195068359375" preserveAspectRatio="xMidYMid meet"><rect id="svgEditorBackground" x="0" y="0" width="288" height="288" style="fill:none;stroke:none;"/><g style="fill:rgb(187,31,103);fill-rule:evenodd;stroke:rgb(187,31,103);stroke-width:0.1;" id="l2"><path d="M156,0h1v1l1,-1h1v1l-1,1h-1l-1,-1ZM153,1h2v2c-2,0,-2,1,-3,2c-2,0,-2,1,2,1v-1l2,-2l6,-1h7l2,1l1,2v1l3,-1h1v2l-2,2l1,-1h1v1c-1,1,0,1,1,2v-1h2l-2,-1v-2l2,-1h1v2c-1,1,0,1,1,2v-3l1,-1l2,-1h3c1,1,1,0,2,-1h-1v-1l10,-1h3v2h-2l-1,-1v2h-2c-1,-1,-1,0,-7,1h2v1l-5,1h-1l-1,-1l2,2l1,2v1c2,0,1,-1,1,-2c4,0,4,-1,6,-2h7v3h-11l6,1l2,1v1l-1,1h2v2h9l1,1v2h-5c0,-2,-2,-1,-8,-1l-3,-3v3h-1v-2c-2,0,-1,1,-1,3h-1v-2l-1,1l-2,1h-2l-1,-1v-1l-2,1c-8,0,-8,1,-9,3l-1,1c-2,0,-2,1,-3,2c-2,0,-2,1,-6,5h-1v2l-1,1h-1v3c-1,1,0,1,1,2v-1c2,0,2,-1,3,-2h5l2,1v1l1,-1h2c1,1,1,0,2,-1h1l1,1v1l1,-1h1c3,1,3,0,5,-1h2c0,-3,-3,-2,-5,-2v-1c2,0,2,-1,3,-2h1c1,1,1,0,2,-1h3v2l-1,1h-1h2v1l-1,1l1,-1h1v3l1,-1h1v1l-1,1h9l3,1v1h5l1,1v1h2v1h-3l-2,-1v-1l-2,1h-5l-1,-3v3l-1,1h2l1,1v3c-3,0,-2,0,1,1l2,1l3,3v1l-1,1l1,-1h1v1l-1,1h2v7h1v2h2v1h-2l2,2v1l-1,1h-1l-1,-1v-3l1,-1l-1,1h-3l-2,-4v-1h-3l-1,-1v-1h-4v-1h-10v1c-5,0,-5,1,-6,2l-3,1h-2v3c-2,0,-2,1,-7,6h-1v3l-2,2h-1v3l-1,1h-1v3l-1,1h-1v5l-1,4l-1,2h-1v9h-2v3h-1l1,7v2c-2,0,-2,1,-3,2h-1l-3,-1v2h-1c-1,-1,-1,0,-2,1h-1l-1,-1v1h-3v2l-4,1h-1l-1,-1l-2,-4l-1,-3c0,-2,-1,-2,-4,-5c0,-2,-1,-2,-6,-7l-3,-3v-1h-3l-1,-1v-1h-3l-1,-1c0,-2,-2,-2,-8,-4v-1l-2,1h-1c-1,-1,-1,0,-5,2c-2,0,-2,1,-3,2h-1v2l-1,1h-1v2h-1c-1,-3,-1,-2,-3,2l-1,1h-1l-1,-1l1,8v4l-1,1h-1l1,2v5c-1,10,0,10,2,11l1,1v4l-1,1h-1l2,2v1h-1l-1,-1v-1v4h-1l-1,-1l1,1v3l-1,1h1v1h-1l-1,-1l-1,-4c0,-3,-1,-3,-2,-4v-1c1,-3,0,-3,-1,-12v-1l1,-7l-1,1h-1v-1c1,-4,0,-4,-2,-5l-1,-1v-11l-1,2h-3v4h-1v-5l1,-1h1v-5l-1,2l-2,1h-2v2h-4l-1,-1v-1l1,-1h-2v-2l2,-2l2,-1c-3,0,-3,1,-5,3h-1v2h-1v-3h-2v-1l1,-1h1l1,2v-3h3l-1,-1v-1h1l2,1v-3c2,0,2,-1,4,-3l2,-2l2,-1c-3,0,-3,1,-4,2h-3v2l-3,1h-2l-1,-3v-2h1l1,1v1h2v-2c3,0,3,-1,7,-5c2,0,2,-1,4,-3c-5,0,-5,1,-7,2h-4v1c-2,0,-2,1,-3,2c-2,0,-2,1,-4,3l-2,1h-1v-1l1,-1l2,-1h1c0,-2,-1,-1,-3,-1l-2,-1l2,1v1l-2,2h-1l1,1v1l-1,1h-1c0,-2,0,-1,-1,1l-8,8h-2l-1,-1v1l-1,2h-1v-2l-2,2h-1v-2c2,0,1,-1,1,-2h1l1,1l-1,-1v-4l2,-2h1h-3v-2l2,-2h1v-2c2,0,2,-1,3,-2c2,0,1,-2,1,-3c2,0,2,-1,3,-3l1,-1c3,0,2,-2,2,-3l1,-1h1l1,1v-3c2,0,2,-1,3,-2l2,-1h1l2,1l-2,-2v-1l-2,2l-2,1h-1c-1,-1,-1,0,-2,1l-4,2h-2v-2c3,0,3,-1,5,-3h3l1,1v-2l3,-1h2v-2h1l1,1v2l-2,1h3v-2c2,0,2,-1,3,-2h2c0,-2,-2,-2,-2,-1l-2,2h-2v-4c2,0,2,-1,3,-2c2,0,1,-1,1,-2h2v-2l2,-2h-1v-1l2,-1h2v2l-2,1h3v-2l2,-1h1v2l1,-2h2l1,1v1h2l1,1v1l-9,1h-2v1h-1l1,1v2l1,-2h1v2h10l4,2v-1c3,0,2,-2,2,-3h3h-1v-2h-5v-1h5l-1,-1v-1h3v-2h3h-1l-2,-2v-1h-2l-1,-1v-1h-2l-2,-1v-1h-3l-2,-1v-1l-3,1h-1c-5,-1,-5,0,-6,1l-2,1h-2v2h-8v-1l1,-1h1v-2h1l3,1c0,-2,-1,-1,-3,-1l-1,-1v1l-1,2l-2,2h-1v-1l1,-1l-1,1h-1v2l-1,1l-2,1h-2v-2h2v-2h1l1,2v-4l2,-1c2,0,2,-1,5,-4h3v-1c2,0,2,-1,3,-2l2,-1h2v-2l1,-1h-1v-1l14,-1h-3l-1,-1v-1h-3v-2l1,-1h1l1,1l1,2v1h5l1,1v1l3,-1h1l2,1v2c2,0,1,-1,1,-5l1,-1l2,-1h1v2l-2,2h1v-1l1,-1h1v-2h1l-2,-2v-1l-2,2h-1v-5h1l2,2v1h2v1h4l8,2v-1h-1l-1,-1v-1l1,-1h-4v-5h1l1,2v1h3l2,1l1,1v1h-1l-2,-1l2,2l1,3v1h-3v2h3l1,1v1l-4,1h4l1,1v1l1,-1h1l2,1v1h4v1l1,-1h1v3l1,-2l1,-1h1v3l-2,1h3v-3l1,-1h-1l-2,-1v-1l1,-1h2c1,1,1,0,2,-1h1v1c-2,2,0,2,1,3v-1h1l-1,-1v-1l1,-1h1v-2h-3v-1h3v-2h2l1,1l-1,-1v-1l3,-1c2,0,2,-4,3,-11l2,-2h1l1,1l-1,-1v-1h1l1,1v-3ZM100,22h-3l1,2v3l1,-1h1l-1,-1v-1h1l1,1l-1,-2ZM67,56v1h-3v3l2,-1h3v-2h4v-1l1,-2h-4v1l-2,1ZM205,51h-2l3,3v1h2l-3,-3ZM203,50h-1v1h1ZM189,36v1h-2h4l2,1l-1,-1v-1ZM171,7h-1l-3,-1l-1,-1l1,1v1l-1,2h-3v2h4v-3ZM160,4v1l-2,1h4v-2ZM197,48v-1h2l-2,-2v-1h-2v-1l-4,1h-1l-1,-1v1l-5,1h-1l2,1v2l1,-1h9ZM152,13v-2l1,-1h2v-2h3v-2l-2,1h-1l-1,-1v2h-1l-1,-1v2h-1l-1,-2v-1v2h-1l-2,-1v4l-1,3l-1,1h2v-1l1,-1h1v-3h1l1,2v1l-1,1h2Z"/><path d="M136,2h5l5,1v2l-1,1h-2v3h-1l2,1v1h-2l-1-1v5h-1v-2h-2v-1l1-1h1v-2l1-2h-3v-1l-1,1c-2,0-2,1-3,3l-3,1h-1l-1-2v-1l-1,1h-9h1v1h-1l-1-1v-3l3-1h4l1,1v1h2v-3c7,0,7-1,8-2zm6,3h-2l-1-1v1l-1,1l1-1zm-18,4h2v1l-1,1h-1zm-41,2h4v1l-1,1h-1c-1-1-1,0-2,1h-1v-2zm5,0h3l1,2v1l-1,1h2v3h-1l-1-1l-1-2v-2h-2zm16,0h1v3h-2v-2zm95,2h1l1,1v1h2v1h-3l-1-2zm-71,2h1v2h-1z"/><path d="M72,18h1v1l1-1h1v2h-2l-1-1zm48,1h1v2h-1zm11,3h1v2h-1zm-64,1h1v2l-1,1h-2v-1zm55,0h1v3l-1,1h-1v-1zm6,0h1v2h-1zm55,3h1v2h-1zm-94,3h1l1,1v1h-1l-1-1zm109,2h2l2,2c0,2,1,1,3,1v2h-3l-2-1l-1-1v-1h-2v-1zm-18,1h1v1l-1,1h-1v-1zm14,1h2v1h-2zm-140,10h1v2l1-2h2v1l-2,2h-1l-1-1zm-2,3h1l1,1v1h3v1l-2,2h-4l-1-1v1c-5,0-5,1-7,2h-1c-2-1-2,0-4,2h-1v-1l1-2c2,0,2-1,3-2l4-2h2c1,1,1,0,2-1zm29,1h1v1l-1,1h-1v-1z"/><path d="M51,55h1v3h-2v-1zm-14,14h1v1l-1,1h-1v2l-2,2l-1,1h-2v-1c2,0,2-3,3-5h1c1,1,1,0,2-1zm175,2h3v1c-1,2,1,2,3,4v1h-1l-1-1v2h-1l-1-1l-1-2l-1-3zm-182,6h1l1,1v1h-2zm24,10h2v2c-2,0-1,1-1,2l-1,1h-1v-3zm-21,10h1l1,3v1l-1,1h-1v3c-2,0-1,1-1,2l-2,2h-1v-1l1-1h1l-1-1v-2l1-1h1l-1-1v-1zm53,3h1v2h-1zm-34,1h1v3l-1,1h-1v3h-1v-3l1-1h1l-1-1v-1zm106,2h1v2h-1zm-74,1h1v1l-1,1h-1v-1zm-20,1h2v1l-1,4h-1zm3,3h1v2h-1zm111,0h5l2,1c0,3,2,3,4,4l1,2v1h3l4,2v2h-1l-1-1v-1c-6,0-6,1-8,3h-1l-1-2v-1c-2,0-2,1-3,2h-2l-1-1v-1l-2,1h-1l-3-1l1,1v1h-1l-1-1l1,2v2l-1,1h-1l-4-4l3,6v2l-5,1c-5,0-5,1-9,2h1v1h-6l-2-2v-1h-2v-1h-1l2,2v1h-3l-1-1v-4c3,0,3-1,4-2l4-2c2,0,2-1,3-3h1c1,1,1,0,3-2c2,0,2-1,3-2h-3l-1-2v-1h3l2,1l1,1v1h2v-1q2,0-2-1l-1-1v-1l9-1c5,0,5-1,6-2zm3,3v-1h-2v1z"/><path d="M91,109h1l2,1v3c-2,0-1,1-1,2l-1,1h-1zm-40,2h1l1,1v3h-2zm3,1h2v5h-2v2h-1v-2l1-2h1l-1-2zm10,1h2v1h-2zm3,0h1l1,1v2h-1l-1-1zm1,4h1v2h-1zm19,3h1l1,1v1h-2zm111,0h1l1,2c0,3,1,3,3,5v6h-4l-2-1v-1h-3v-2h2v-2c1,0,1-3,2-7zm-129,1h2v1h-2zm4,0h1v2h-2v-1zm57,2h3v1l-1,3c-4,0-4,1-6,2c-5,0-5,1-6,2c-3,0-3,1-4,3l-3,3h-1v2l-1,2c-2,0-2,1-3,2h-2l-1-1l1,1v4v-2h1v6h-1l-2-2v-1l1-1h-2v-1l1-4l1-2h1l1,1l-1-1v-2h1l1,1v-2l1-2l6-6c2,0,2-1,4-3l3-1z"/><path d="M72,124h1v2h-1zm14,2h1l1,3v2h-1l-1-1zm49,1h1l2,1l1,2v1l-1,1h-1l-1-1l1,3v1l-1,1h-1v-1c1-1,0-1-1-2v-1l1-1h1l-1-1v-1h-6v-1zm-66,2h2v1h-2zm-1,4h2l1,2v7v-1h1v4l-1,2h-1l-1-5v-3h-2v-1l1-1h1l-1-3zm51,5h1v3h3l1,1v2l-1,1c-2,0-2,1-5,4l-2,1h-2v-2l1-1h1v-6l1-2h1l1,1zm49,1h3l3,1l2,1l3,3v2h7v-2h3l4,2l2,2v1l1-1h3l1,1c0,2,1,2,2,3c0,2,1,2,2,3l2,6c0,2,1,2,3,3v1h4l1,2c0,3,2,3,2,2l1-1c4,0,4-1,5-3h1l1,2v-3h1l1,2v1l1-1h1c0,4,1,3,3,2h3v3l-1,1c2,0,2-1,3-2h1l2,1l1,2v1h-1q0-1-1,5l-9,1h-7l-9-3l-3-1v-1h-5q0-1-1,2l-1,1h-1l-4-2v1h1l1,1v2h-1l-2-1c0-2-1-2-3-4c0-2-1-2-3-4l-1-2v-2h-2l-1-1v-1h-12l-2-1v-1h-6v-1c-3,0-3,1-4,3h-1l-1-1l-1-2c0-2-2-2-12-7l-1-1v-1l2-1h2v-2l1-1h-3v-1l1-1h1v-2l1-1l2-1l9-3zm65,37v1h-2v1h2z"/><path d="M114,140h1v2h-1zm-31,6h1l1,1v1l-1,1h-1l1,2c0,3,1,3,3,5v1h-2c0-2-1-2-2-3c0-2-1-2-2-3v-2h2zm46,8h1v13l-1,4c-1,0-1,5-2,11l-1,4l-1,2c-3,0-3,3-4,7l-1,2l-1,1h-2v3l-5,1h-2v-2l1-4h-3v-2l2-4l1-1c1,0,1-4,2-13c2,0,1-1,1-2l2-6l1-2c4,0,4-4,3-4l-1-1v-1l5-5z"/><path d="M144,157h6v1c-3,0-3,1-4,2c-3,0-3,1-5,3h-1v-1l1-2zm-57,1h1v3h-1zm61,8h5l3,1v1l-2,1h-1v-2h-5zm26,0h1v2h-1zm-31,7h1l2,2v1h-1l-2-2zm62,4h4v3h-4zm-30,1h1v4h-1c-5-1-5,0-6,1c-3,0-3,1-5,2c-9,0-9,1-12,2h-2v-2c3,0,3-1,5-2l3-1h1c1,1,1,0,4-1c4,0,4-1,7-2zm-70,2h1v2h-1zm79,6h1v2l-1,2l-1,1h-1v-1zm-3,6h1v1l-2,2h-1v-1z"/><path d="M173,199h1v1l-1,1h-2v-1zm-5,2h2v1h-2zm-4,1h3v1h-3zm33,3h3v1h-3zm-77,2h1l2,1l2,2v1h-1l-1-1v-1h-3zm73,9h2v1h-2zm-48,14h1v1l-1,2h-2v-1zm-5,6h1v1l-1,1h-1v-1zm-18,4h2v1h-2zm-2,4h1v4h-1z"/></g><g style="fill:rgb(226,115,156);fill-rule:evenodd;stroke:rgb(226,115,156);stroke-width:0.1;" id="l3"><path d="M144,117h1v1l-1,1h-3v-1zm12,1h1v2h-1zm28,0h1l1,1v2l2-2h2v1c-2,0-2,1-3,3h-1l-2-4zm-30,2h1v1l-1,1l-2,1h-1v-1l1-1zm28,0h1v1l-1,2h-1l-1-1v-1zm15,2h1v2h-1zm-51,2h2v1h-2zm72,0h2l1,1v1h-1l-2-1zm-81,1h3v1l-1,1h-3v-1zm73,1h1v1l-1,2h-1v-2zm-67,1h1v3h-1zm72,0h4l2,1l3,3v1h1c0-2-1-2-2-3v-1h1l2,2l1,2v2c-1,2,0,2,1,4l1,4v1l-1,7l-1,2h-1v5l-1,2h-1v3l-5,5h-1v-3h-4c0-5-2-3-4-3v1l-1,1h-1l-2-2l-1-2l-1-3c0-2-1-2-2-3l-1-2v-5l1-4l2-6l2-4l1-1h1v1l-1,2h-1c0,3,1,2,3,2v-3h2v-2l1-1h1v-2z"/><path d="M138,128h1v2h-1zm29,0h2v1h-2zm-5,1h2v1h-2zm-19,2h3v1h-3zm6,1h2v1h-2zm-12,1h1v3l-1,1h-1v-1zm-28,8h2l1,1v1h-4v-1zm-2,3h1l1,7v1h-3v-1zm5,5h1l1,1v1h-2zm38,0h1v3h-1zm-5,6h3v1l-2,1h-2v-1zm7,2h1l1,1v1h2l2,1l1,1l1,2c0,5,1,5,2,6l1,3v2c2,0,1-1,1-2h6c2,1,2-1,3-4h1v2l2-4l2-1h7l1,1v1h2v2l-1,1h-2v2h-3c-1-1-1,0-2,1h-1l1,2v2h4l1,1v2l-1,1h-1v2l-1,1h-1v2h-1c-2-1-2,0-4,2h-1v-2c-2,0-1,1-1,2l-2,1h-2v-1l2-1h-3v-2l2-1c3,0,3-1,5-2h1c0-5-5-4-12-4v1h-4v1c-3,0-3,1-5,2l-3,1c-3,0-3,1-4,3h1l2,2v1h2v1l-3,1l-4,1h-1l-2-2v-1h-2l-1-1v-1l1-1c3,0,2-2,2-4h-3l-6-1l1,1v1l-4,1c-3,0-2,1-2,4l1-1h1l2,1v2l-1,3h-2v3h-2l-3-3v-8l1-6l1-2h1v-7l1-5l1-4l2-2h2c3,1,3,0,6-1h1v2l-1,1h-1v2l-1,1c2,0,2-1,5-4l2-1c4,0,4-1,6-2zm-10,12l1,2v1l-1,2h1l3,3v1l1-1h1l1,1v1h5l-2-1l-1-1v-2h1v2h3v-1l1-3h-1l-3-1v2h-1v-2l1-1h3l2,2v4h1v-5h-1l-1-4v-3h-1v-2h-2v-1h-5v1l-2,2h-1v2l-1,2z"/><path d="M93,161h1l3,1v1h-3l-1-1zm-5,1h2v1h-2zm2,2h5v1q-1,0,4,1l1,1v1h3v1l3-1h1l1,1v1l-1,3l-1,2h5l1,1v11l-1,3l-2,4l-1,1h-2v2h3l1,1v1h-3l-3-1l-2-1l-4-4v-1h-2l-4-4l-1-2c0-2-1-2-3-4l-2-4l-1-4v-5h1v3l1-4l2-2h1zm12,20h1l2,1l1,1v-8h-1l-1-1v-1h-2l-1-1v-1h-2v-1h-6l2,1l1,1v1h2v2h1l2,2l1,3zm-2-20h1l3,1v1h-3l-1-1zm-14,1h1v2l-1,1h-1v-1zm79,2h3v1l-2,1h-2v-1z"/><path d="M188,171h1v2h-1zm-42,1h1v3h-1zm42,2h2l2,1v1l-1,1h-1l-3-1v-1zm-1,6h1l1,1v1h2v7l-2,2h-2v2l-2,2c-2,0-2,1-4,3h-2v-1l2-2h1v-2l1-1h1v-2h1v-3l1-3h1zm-32,9h3v1h-3zm12,0h2v1h-2zm7,0h1v1l-1,1h-1v-1zm-11,1h3v1h-3zm-24,2h2l3,3v2h2l2,2v1h2l1,1v1h2l1,1v1h-3l-1-1v-1l-1,1h-2l-1-1v-1h-4l-2-1c0-2-1-2-2-3v-1zm36,3h3v1l-2,2h-1c0-2,0-1-1,1h-1l-4-1v-1c5,0,5-1,6-2z"/><path d="M227,197h1c0,2,2,1,3,1l2,1v1l1-1h1l1,2v6l-1,2l1-2h1l1,2v1c-2,0-1,1-1,2h3c3,1,1,0-1-2v-1h1l1,1v1h2l1,1v6h-2v-3c-3,0-2,1-2,3c-1,1,0,1,1,2v1l1-2h2l1,2l1,3v4h-1l-2-1c-4-4-3-2-2,1v5h-4l-2-1q-1-2,0,1v1h-1l-1-1c0-3-1-3-2-4v-1h1c1,1,1,0,3-2h1c0-3-1-3-3-5v-1l-1,1h-1l-4-4c0-5-1-1-7-1l-8-2l-1-1v-1l-3,1h-1c0-2-1-1-3-1l-3-1l-2-1v-1h-4l-1-1v-3h1v3l1-2l4-1h16l1,1v2h7l2,2c0-2-1-2-2-3v-2l1-1h1v-4z"/><path d="M151,199h6v1h-2l2,1v1h-2l-3-1l-1-1zm25,0h1v1l-1,1h-1v-1zm-8,1h2v1h-2zm-4,1h2v1h-2zm-9,2h2l3,1v1h-3l-2-1zm-43,1h6v3h2v2h3l1,1v1l1-1h3l11,1l4,1v1l-1,1h2v2l-2,2l-4,2c-3,0-3,1-4,2c-2,0-2,1-4,3l-1,1c-2,0-2,1-3,2l-3,1h-2v2c-1,1,0,1,1,3v2l-1,3l-4,2l-3,1h-1l-1-1v-3l1-3c2,0,1-1,1-5l-1,2l-3,3h-1v2h-1l-2-2v-3l1-1h1v-2l3-3h1l-1-2v-1l-3,1h-2v-3l2-1l3-1h1h-4v-2c4,0,3-4,3-7h-1l-1-1v-2h1c1,1,1,0,2-1h1l-1-1z"/><path d="M219,206h3v1h-3zm-28,8h1v3h-1zm48,20h1l1,1v1h-1l-1-1zm-112,4h2v1l-2,1h4l-1-1v-1h3v1l-1,2l8-1h7l6,3l1,1v1h-1l-3-1l1,1v1h2l1,1c0,2,1,2,4,5v1l2-2h2l4,1l1,1l1,3v2l-2,4l-1,1h-1l1,1v1h-2v3h-1l-1-2v3l-1,2h-2l-1-1v2h-3l-3-1l-2-2v-1v2l-1,1h-1v-3l1-1h-2l-1-2v-2h-2v-3h-2v-2h-5c0-7-1-7-3-9v-1h-2l-2-2v4h-2l2,1v3h-1l-2-2v-2h-2v-1l1-2h1c0-3-2-2-3-2l-1-1v4h-1v-7h3v-2z"/><path d="M134,238h5v1h-5zm60,9h1v3h-1zm-32,2h2v1h-2zm5,2h2v1h-2zm-46,5h6v1l-2,1h-1v2l-2,1h-1l-1-3v-1zm55,7h1v1l-3,6h-1v-3l1-1h1v-2zm-5,8h1v2l-1,1h-1v2h-1v-2l1-2z"/></g><g style="fill:rgb(52,148,188);fill-rule:evenodd;stroke:rgb(52,148,188);stroke-width:0.1;" id="l4"><path d="M157,114h2l1,1v2l-2,1c-2,0,-2,1,-3,2c-6,0,-6,1,-7,2l-2,1h1v1h-2c-1,-1,-1,0,-7,1h-4l-1,-1v-1l2,-2c4,0,4,-1,6,-2l9,-3c4,0,4,-1,7,-2ZM174,119h4l2,1c0,2,1,2,3,4v1l2,-2h2v-2l1,-1l2,-1h4l2,2l1,3v1l-1,1h-1v2c-3,3,-1,3,2,4l2,1v1l2,-1h1l2,1l1,1v1l-3,3l-2,1c-3,0,-3,1,-4,2h-5l-3,-1v-1l-2,1h-4l-6,-6v-1l1,-1h-3l1,1v1h-2c-1,-1,-1,0,-2,1l-2,1l-5,1c-5,0,-5,1,-9,2h-2c-1,-1,-1,0,-3,2l-4,2h-1l2,1l2,2l1,2v3h-4c-2,-1,-2,1,-5,4l-2,1h-5l-3,-1v-5h-4v-1c3,0,3,-1,5,-3h1l-1,-1v-1l-2,1h-3v1c-2,0,-2,1,-3,2h-1c0,2,2,1,3,1v2c-2,0,-2,1,-4,3h-3l-2,-2v-1h-2l1,1l1,3c0,4,1,4,2,5v2h-1v-1l-1,1h-1l1,1v1h-1c-2,-1,-2,3,-3,5h-1v3l-3,3h-1l-1,-1v-5l1,-1h-4v-1c2,0,2,-1,3,-2h1c0,-2,-3,-1,-5,-1l-1,-1v-1l-3,1h-1v-1l1,-1h-2l-1,-1c0,-2,-1,-2,-2,-3l-1,-4v-2l1,-1h1v-3h1c1,1,1,0,4,-1h1l1,1v1h2l2,2v1h3v-5l1,-1h1l1,3c0,2,4,2,4,1l2,-2l4,-2c5,0,5,-1,6,-2h-3l-4,-4v-6l1,-1h1v-2h8l6,6v1l1,-2l4,-4h7c6,1,6,0,8,-1c5,0,5,-1,9,-2h6l1,1v2c4,0,4,-2,2,-2l-2,-2l-1,-3v-1l1,-4Z"/><path d="M141,126h1v2h-1ZM119,164h1v2h-2v-1ZM185,203h5v4c-1,1,0,1,1,6v5h1c0,3,1,3,2,5v1c-1,5,0,5,1,12v7l-1,10h-1l1,3v1l-1,1h-1v-3l-1,1h-1l-3,-3l-1,-2v-2l-1,1l-2,1h-7l-2,-1l-3,-3l-1,-2v-1l-2,1h-9l-3,-3c0,-2,-1,-2,-2,-3c0,-2,-1,-2,-2,-3v-1h1l3,3v1c4,0,4,-2,2,-2l-2,-1v-1l1,-2h1l-2,-2v-1l-1,1h-2v2l-1,1h-3c-1,-1,-1,0,-2,1h1v1c-6,0,-6,1,-7,2h-1v-1l4,-4h1v-2h2v-2l1,-1l2,-1c2,0,2,-1,3,-2l3,-1h1l-1,-2v-1l2,-1c2,0,1,-6,1,-7l6,-1h3v-1c2,0,2,-1,3,-2h3c5,1,5,0,6,-1h1v-2c2,0,2,-1,4,-3Z"/><path d="M223,220h1v2l-2,2h-1v-2h2zm-42,36h2v1h-2zm3,1h1l3,1l2,1v2h-7l-4-1v-1l6-1h-1z"/></g><g style="fill:rgb(184,82,113);fill-rule:evenodd;stroke:rgb(184,82,113);stroke-width:0.1;" id="l5"><path d="M198,3h1l1,1v1h-2zm-22,6h2v1h-2zm14,2h3v1h-3zm-110,3h2v1h-2zm29,1h1v1l-1,1h-1v-1zm-10,1h3v1h-3zm-3,5h1v1l-1,1h-1v-1zm116,1h1v1l-1,1h-1v-1zm-120,3h2v1h-2zm98,6h1l1,1v1h-1l-1-1zm14,5h2v1h-2zm1,2h2v1h-2zm-160,23h1v1l-1,1h-1v-1zm134,47h2v1h-2zm-25,6h1v1l-1,1h-1v-1zm-5,1h3v1l-2,1h-1zm24,3h3v1h-3v2h-1v-2zm4,0h2v1h-2zm6,0h1v1l-2,2h-2v-1c2,0,2-1,3-2zm10,0h2l1,1v1h-1l-2-1zm4,2h1v2h-1zm-52,4h1l1,1v1l-3,1h-1l-1-1v-1zm-13,2h1l2,1v1h-3zm7,0h1v1l-1,1h-3v-1z"/><path d="M196,126h1v1l-1,2h-1v-2zm26,0h1l1,1v1h-1l-1-1zm-57,2h2v1h-2zm-5,1h2v1h-2zm-4,1h2v1l-2,1h-1v-1zm-21,4h1l1,1v1h-1l-1-1zm81,2h2v2l-2,6h-1l1,1l1,2v1l-1,2h-1v3h-1l-1-1c0-2-1-2-2-3v-5l1-3l1-1h1v-2zm11,0h1v2h-1zm-115,7h1v2h-1zm89,1h1v2h-1zm-89,3h1l1,2v1h-1l-1-1zm37,0h1l2,2v1h-1l-2-2zm51,2h1l1,2v1h-1l-1-1zm-34,2h2v1h-2zm-20,1h1l1,2v1h2l2,1v2l-2,1h-3v-1h3l-4-1v-1l2-1c-3,0-3,1-4,3l-1,1h-1c-1-1-1,0-4,1h-3c-2-1-2,0-3,1h-1v4l-1,1h-1v-1l1-4l2-4c9,0,9-1,10-2l2-1h2z"/><path d="M226,152h2v1l-1,1h-1zm-66,1h3v3h-1l-2-2zm42,0h1l1,1v1h-1l-1-1zm2,3h1v2h-1zm-51,1h1l6,3l2,4v2h-2c0-3-1-3-2-5v-1h-2l-2-1l-1-1zm19,0h2l3,1l1,1v1h2v1h-5l-2-1l-1-1zm33,2h1c0,2,1,2,2,3v1l2-2c2,0,2-1,3-2h1l1,2v1l-1,2h4v4l-2,2h-2l-1-3v-2h-4l-2-1l-1-1l-1-2zm-62,1h1v1l-3,3h-2v-1c2,0,1-1,1-2h1c1,1,1,0,2-1zm-23,2h1v4l-1,1h-2v-1h2zm29,1h4l2,1v1l-1,2h-9v-1l2-2h1l1,1z"/><path d="M176,164h9v1l-7,1c-2,0-2,2-3,4h-1l-1-2v-1h1l1,1v-3zm-47,3h1v3h-1zm15,1h1v2c-2,0-1,1-1,2l-1,2h-1v-5zm12,0h1v1l-1,1h-1v-1zm-28,3h1v6l-1,2h-1v-3zm41,0h1v1l-1,1h-1v-1zm22,0h1l2,2c0,2,1,2,3,4v2h2v1h1c0-2-1-2-2-3v-1h2l2,1l1,1v-1l1-3h1l1,1v2l-1,3l-1,1h-1v3l-2,2h-1v2l-2,2l-3,3h-1v2l-2,2c-2,0-2,1-3,2c-1,0-1,1-2,3l-2,1c-2,0-2,1-3,2c-3,0-3,1-4,2l-3,1l-4,1l-8,1h-9l-9-1l-4-1v-1h-5l-6-3l-2-2v-1h-2l-2-2v-1l-4,2h-1v-1l1-1l2-1h2v-9l1-2h1c0,7,1,7,3,9v1h2v-3h2v-3h1c0-2-2-1-3-1v-1l1-1c2,0,2-1,3-2h1l1,1v-2h8v2c-3,0-3,1-4,2h-1l-1-1c0,2,1,2,2,3c0,2,1,2,5,6v1h2l2,1l2,2c0,1,3,1,12,2v1h3l-1-1v-1h2l2,1v-2h1l2,1l-2-1v-1h2l1,1v-2c2,0,2-1,4-3c2,0,2-1,3-2h1v-2l1-1h1v-2h1v2l-1,2l-1,1h-1v2l-3,3c2,0,2-1,4-3c2,0,2-1,3-2h1v-2c2,0,2-1,3-2h1c0-7-2-7-4-9v4h-1c0-3-2-2-3-2v-1l1-1h1c0-2-1-2-5-3v-2c2,0,2-1,3-2c6,0,6-1,8-2zm-34,32h-2l2,1v1h3l-3-1zm-9-4h-1l-1-1v-1h-2v-2h-1l-2-2v-1h-2v4l-1,1h1l1,1v2h2l4,1l1,1v1l2-1h1l1,1v1h3l-1-1v-1h-2l-1-1v-1h-2zm27,2h1v-1h-1zm2-1v-1h-1v1zm11-24h4l-2-1v-1l-2,1h-1z"/><path d="M93,173h6l2,1l1,1v1h2l1,1l1,1v8h-1l-2-1l-2-2c0-3-1-3-3-5v-2h-2l-1-1v-1h-2zm19,0h2v1l-1,11h-1l-1-9v-2zm33,3h2v2h-1l-1-1zm31,2h1v4l-1,1l-2,1l-3,1h-2v2h3v1l-2,1l-3,1h1v1h-1c-4-1-4,0-10,1h-3l-3-1v-1h3l-2-1l-1-1v-1c16,0,16-1,18-3l2-1l3-1h2zm-18,12v-1h-3v1zm-32-8h1v3h-1z"/><path d="M89,183h1l1,1v1h-1l-1-1zm96,2h1v2h-1zm-12,1h2v1h-2zm-62,1h1v2h-1zm-14,5h1l1,1v1h-1l-1-1zm9,3h2l3,1v4h-2c0-3-2-1-4-1v-1c2,0,1-1,1-3zm127,2h1l1,1v1h-1l-1-1zm-75,2h5v1l-2,1h-1l-2-1zm34,6h2v3l1-3h2v1h-1v2l-1,1h4l2,1v1h3v1l2-1h1c0,2,1,1,4,1l1,1v1h4l4,1v1l1-1h3v3l-1,2c-2,0-2,1-3,2h-6l-1-1v-1h-7v-1h-9l-6-1v-1c1-3,0-3-2-9v-1l1-1zm3,12v-1h-2v1z"/><path d="M118,206h2v1h-2zm-9,3h1l1,1v1h-1l-1-1zm34,1h1l5,1l3,1v1h4l4,4v1l-4,2h-1l-1-1v2l-1,1c-6,0-6,1-8,2h-5v1c-3,0-3,1-4,2c-3,0-3,1-6,4c-2,0-2,1-5,4c-2,0-2,2-3,4l-1,1h-1v2l-1,1l-3,1h-1l-1-1v-2c3,0,3-1,5-2c2,0,2-3,3-5h-1l-1-2v-1l1-2l2-1c3,0,3-1,4-2c2,0,2-1,5-4c2,0,2-1,3-2c3,0,3-1,5-2c2,0,2-1,3-2h1c0-2-2-1-3-1v-1l2-2h-4v-1zm96,5h3v4h-1l-1-1l-1-2z"/><path d="M243,215h1v2h-1zm-16,2h1l3,3v1l1-1h1l3,3v3l-3,3h-1l1,1v2h-1l-1-2v-1l1-1h-3l-2-2v-1h-2l-1-1v-2l2-4zm-122,3h1v2h-1zm140,2h1v2h-1zm-137,1h3l1,1v2l-1,1h-1l-3-1l-1-1v-1zm131,0h1l3,3v1h2v2h-4l-1-1l-1-3zm-46,1h1v2h-1zm-86,6h1v1l-1,1h-1v-1zm6,0h1v5l-1,3l-1,1h-3l-1-1v-1l1-2l3-3h1zm121,0h1v2h2v1h4v2h-1l-1-1l1,1v1h-5l-2-2v-1zm1,4v-1h-1v1zm-114,8h1l1,2v1l1-1h2v3l-1,2h-1l2,1v1h-2l-2-1l-1-1z"/><path d="M150,244h3l3,1l2,2l1,2v1l2-1h1l4,1l1,1v1h4v1l-2,1h2c0,2,1,2,2,3v3l-1,1l1-1l2-1h4v2l-1,2c-2,0-1,1-1,2h-1l-1-1l1,2v1c-3,0-2,3-2,4l-1,1c-3,0-2,2-2,3h-1q0-1-1,3l-6,6h-5v-1l3-1c2,0,1-3,1-4l1-4l2-2c-2,0-2,1-3,2l-4,2h-8l-3-1l-2-1c0-2-1-2-5-6c0-2-1-2-2-3c0-2-1-2-5-6v-1h-2l1,1l2,4c0,2,1,2,2,3c0,2,1,2,3,3l2,2v2h2v2h2l3,3v1h2l4,2v1h3v1h-3l-3-1l-1-1v-1h-2l-1-1v-1h-2l-2-2v-1h-2l-2-2v-1h-3l-1-1v-1h-2l-2-2v-1h-2l-2-2v-1h-4l-2-2v-1h-2v-2l1-1h1c0,3,1,2,3,2v-2l1-1l2-1h2v-5h-2v-1h2v-4h1l1,1v1h2l3,3l1,4v1l-1,2h5v2h2v3h2l1,2v2h2l3,3v1h3l3,1v-2h1c2,1,2-1,3-4h1l1,2v-3c2,0,1-1,1-2l1-1h1v-2l2-4h-1c0-3-1-3-5-4v-1c-2,0-2,1-3,2h-1l-4-4c0-2-1-2-3-3l-1-1zm-2,27v-1l1-1h-1l-1-1v3z"/></g><g style="fill:rgb(151,35,82);fill-rule:evenodd;stroke:rgb(151,35,82);stroke-width:0.1;" id="l6"><path d="M155,0h1v1h-1zm38,2h3v1h-3zm-44,1h1v2h-1zm5,0h1v4h-1l-3-1v-1l1-1h1l1,1zm-15,1h1l2,2v1l-1,1h-1c0-3-1-3-1,1l-1,3l-2,4l1-1h1v1l-1,1c2,0,1-3,1-4h1l2,2l1,3v1h-3l1,1v1l-1,1h-1v-1l1-1h-2v2h-3l3,1l1,2v1h-3l1,1v1l-1,1h-1l-2-1v-1l1-1l-1,1h-4l2,1l1,1v1l-1,3h-3v-1c2,0,2-3,1-2h-1v2h-1v-3l-1,1h-1l-4-1l-2-1v-1l-1,1h-1v-1l1-1h-2v-5l-1,1c-2,0-1,1-1,2h-1l-1-1v-2c3,0,2-2,2-3h1l2,1v1l2-2h3v1l-1,2l1-2h1l2,4l1,3v-2c1-2,0-2-1-3v-1h1v1l1-1h1l-1-1v-5l2-2h-4v-1l2-2l-2,1h-1l-1-1v-1h5v2c2,0,1-1,1-2h1l1,1v-2h1v4v-1c3,0,3-2,4-3c2,0,2-1,4-3zm-11,13h1v-2h-1zm0,7v1h1v-2h-1zm-7,3h1v-1h-1zm13-1v-1h-1v1zm-12-3v3h1v-3zm9,1h1v-2h-1z"/><path d="M160,4h2v2h-1l-1-1zm26,0h1l1,1v1h-1l-1-1zm-59,1h1v2h-1zm49,0h2l1,1v1h-1l-1-1v2h-1zm4,0h1v2h-1zm2,0h2v1h-2zm9,0h1l1,1v2h-1l-1-1zm-73,2h1l2,2v3l-2,2h2v1l-2,1h-1l-1-1v-1l1-1h1c0-2-1-2-2-3v4l-1,3h-2l-1-2v-1l1-2l1-1h1v-2zm0,2h1v-1h-1zm1,1h1v-1h-1zm47-3h2v1l-2,2h-1v-1zm7,0h1v1l-1,1h-1v-1zm11,0h1l1,1v1h-1l-1-1zm-37,1h2v1h-2zm32,0h3v1l-1,1h-3v-1zm-16,1h1v2h-1zm-76,1h1v3h-2v-1zm54,0h1l1,1v1h2v2l-1,1h-1l1,2v1h-1l-1-1l-1-3v-1h1l1,1v-2h-2z"/><path d="M186,10h2v2h-1l-1-1zm-36,1h1l1,1v2h-2v-1h1l-1-1zm6,0h1v1l-1,2l-2,2h-1v-2zm-65,1h2v3l-2,1h-2v-1l2-1h1l-1-1zm106,0h1l1,1v1l1-1h1l2,1l2,2v1h-2v-2h-2q0-1-1,2h-1v-2h-2zm-10,1h1l1,1v1l-1,1h-1zm4,0h3l2,1v3l-1,3h-1l-1-3v-1h1l1,1c0-2-1-2-4-3zm-84,1h2v1h-2zm15,0h1v2h-1zm28,1h2v3h-1l-1-1v1l-1,2l-2,1c-2,0-2,1-3,2h-2v-1l1-1c2,0,2-1,3-2h1v-2l1-1zm-2,3h1v-1h-1zm-40-1h2v1l-2,1h-1v-1zm70,1h3v2h-1l-1-1v2h-1c-1-1-1,0-2,1h-1h4v1c-1,2,1,2,2,3v1h-6v-1l1-1h-2c0-2-2-1-4-1l1,1v1h2v1h-2l-2-2v-1l1-1l2-1h1v-2l1-1z"/><path d="M182,18h2v1h-2zm7,0h1v2l1-2h1v2l-1,2h-2l-2-2v-1zm9,0h3l1,1v1h-2l-2-1zm-101,1h1v2h-1zm112,0h2v1l-1,1h-1zm-130,1h1l4,1v1h-6v-1zm113,1h2v2h-1l-1-1zm19,1h1l1,1v1l1-1h1v1l-1,2h-1c0-2-1-2-2-3zm-129,1h1l1,1v1h-1l-1-1zm16,1h1l1,1v1h-1l-1-1zm84,0h2l1,1c0,2,1,1,2,1v1l-1,1h-2c0-2-1-1-2-1zm14,0h1l1,1v1h-1l-1-1zm-85,1h2v1h-2zm83,0h1l1,1v1h-1l-1-1zm-24,3h1v1l-1,1h-1v2l-2,1h-1l2,2v1h-3v-1l1-1c-2,0-2,1-3,3l-2,1h-1l-1-1v2h-1v-2l1-1h1l1,1l-1-2v-2h1q0,1,1-3h1l4,2l-1-1v-1h-2v-1h3c2,1,2,0,3-1z"/><path d="M63,29h2v1l-1,1h-1zm116,1h3l2,1v1l-2,1h3v1h-3l-1-1v-1l1-1h-3zm7,0h1l1,1v1l-1,1h-1v-1h1l-1-1zm6,0h2v1h-2zm-133,1h3v1h-3zm113,0h2v1h-2zm4,0h2v1h-2zm20,0h2v1h-1l1,1v1h-2zm-17,1h1v1l-1,4h-1l-1-1v-3zm13,1h2l1,2v1h-3zm13,1h1v2h-1zm-147,1h1v1l-1,2l-1,1h-1l1,1v1h-1l-2-2v-1h1l1,1v-1l1-2zm11,0h4v1h-4zm7,0h2v1h-2zm93,0h6v2h-4l-2-1zm11,0h3v2h-3zm-47,1h1v2h-1zm-51,1h1v1l-1,1h-3v-1z"/><path d="M84,38h1l2,1v1l-2,1h-2v-1c2,0,1,-1,1,-2ZM60,39h1l1,1v1l-1,2l-2,2h-2v-1l2,-1h1l-2,-1v-1ZM157,40h1v2h-1ZM163,40h2v1l-2,2h-3l1,1v1l-1,2l-1,1h-1v3c-2,0,-2,2,-3,5h-1v-8l2,-2h1l-1,-1v-2h1v2h2v-2l1,-1c2,0,2,-1,3,-2ZM157,49v-2h-1v2ZM75,41h1l1,1v1h-1l-1,-1ZM90,42h1l2,2v1h-1c-2,-1,-2,1,-4,3h-4v-1c4,0,4,-2,5,-4ZM81,43h2v2h-1l-1,-1ZM189,43h6v1l-1,1h-4l-1,-1ZM68,44h1v2h-1ZM54,45h1l1,1v1l-1,1h-1v-1l1,-1l-1,1h-1v-1Z"/><path d="M147,45h1l1,2v1l-1,4h-1zm36,0h2l3,1l2,2v1h-1l-2-1v-1l-1,1h-1v-2h-2zm16,0h2v1h-2zm-125,1h2v1h-2zm4,0h4v1l-1,1h-1l-2-1zm-17,1h1v1l-1,1h-1l2,2v1h-8v-1l3-3h1c1,2,1,1,3-1zm134,0h2v1h-2zm3,1h2l1,2v1h-1l-2-2zm-24,1h1v1l-1,2h-1v-2zm-122,1h1v3h-3v-2zm18,4h4v2h-3l-1-1zm-20,1h1v2h-1zm11,0h2v2c-2,0-2,1-3,2h-1v-1l1-1h1zm85,0h1v5h-1zm-71,1h1v1l1-1h1v1l-1,1h-1l-1-1z"/><path d="M83,56h1v3l-1,1h-1l-1-1v-2zm42,0h1v2h-1zm66,0h6v4h-1l-2-2v-1h-3zm-127,1h2v1h-2zm4,0h1v2h-1zm5,0h1l1,1v2l-2,1h-1v-2c2,0,1-1,1-2zm109,0h1v1l-1,1h-1v-1zm16,0h3l1,1v1h3l1,1v1h-1l-3-1l-1-1v-1h-3zm-141,1h1v3h-3l1,1v1h-2v-2l1-1h2zm98,0h1v1l-1,1h-1v4h-1l-1-2v-2l1-1zm15,0h1v1l-1,2l-3,3c-2,0-1,1-1,2h-1l-1-1l1,1v1l-1,1h-1v-3zm-108,1h4v1c-2,0-2,1-3,2h-1v-1l1-1l-1,1h-1v-1z"/><path d="M88,59h2v1h-2zm10,0h1l1,1v1h2l1,1v1l-1,1h-1l-2-1l-1-2zm80,0h2v1l-1,1l-2,1h-1v-2zm30,0h1c0,2,1,1,2,1v1l-1,1h-1l-1-1zm-161,1h2v1h-2zm13,2h1v1l-1,1h-1v-1zm85,0h1l1,1v10l-1,2h-1zm66,0h1v1l-1,1h-1v3h3l1,1v3h-2c0-2-1-2-3-4l-1-2v-1c2,0,2-1,3-2zm-169,1h2v1h-2zm93,0h1l1,1l1,4v5h-3zm64,0h2v1l-2,1h-1v-1zm-27,2h1v1l-3,3h-1v2h-1v-2z"/><path d="M39,66h2v1l-1,2h-2v-2zm165,0h1v1l-1,1h-3v-1zm-43,3h2v2l-1,1h-1v3l-1,3h-2v-4l1-2l1-1h1zm-9,1h2v1l-1,3h-2l-1-1v-2zm-1,2v1h1v-1zm16,0h1v1l-2,2h-1v-1zm47,0h2v2h-2zm-182,2h1l1,1v1l-1,2h-1zm35,0h4v1l-2,2h-1v-1l1-1h-2zm41,0h2l1,2v1h-2l-1-2zm30,0h1l1,2v4h-1l-1-4zm13,1h1v2h-1zm66,0h1v1h-1l1,1v1h-2v-2zm-157,1h2v1l-4,2h-1v-1l1-1zm-11,2h2v1h-2zm114,0h1v2h-1zm-108,1h1v1l-1,1h-1v-1z"/><path d="M162,81h1v2l-1,1h-1v-2zm-96,1h3v1c-2,0-2,1-5,4h-1l-1-2v-1h1c1,1,1,0,3-2zm-25,1h1v1l-2,2h-1v-2zm8,0h1v1l-1,1h-1v-1zm74,1h1l3,3v2h-1l-1-1c0-2-1-2-2-3zm22,0h1v3h-1zm-111,1h1v3l1-1h1v3h-1l-1-1v3h-1l-1-5v-1zm12,0h1v1l-1,1h-1v-1zm57,0h2v1h-2zm-65,2h3v1l-2,2h-1zm14,0h2v1l-1,1h-1zm91,0h1l2,1l1,1c0,4,1,4,2,6v7h-2l-1-1l-1-2c0-3-1-3-2-4v-3h1l1,3c0-3-1-3-2-4z"/><path d="M160,87h1v3h-1zm-101,1h1l1,1v2h-1l-1-2zm-3,1h1v1l-1,1h-1v-1zm26,0h3v1l-1,2l-1,1h-1v2l-1,2h-2v-1l1-2l1-1h1v-2h1l-1-1zm17,0h4l6,2l2,1v2h-3l-1-1v-1l-2,1h-2l-2-1v-1h-4v-1zm33,0h1l2,2v1h2v1l-1,1h-1c0-2-1-2-3-4zm-100,1h1v6h-1l-1-2v-3zm63,1h1v1l-1,1c-2,0-2,1-3,2h-1v-1l2-2zm64,0h1v2l-1,10h-1l1,3v1h-2c0,4,2,4,3,5v1h-1c-1-1-1,0-2,1h-1l-1-2v-7l1-3c2,0,1-1,1-2l1-7z"/><path d="M36,92h1v3h-3v-1zm21,0h1v1l-1,1h-2v-1zm2,1h3v1c-2,0-2,1-3,2h-2v-1zm-7,1h1l1,1v1h-2zm61,1h2l1,1v1h3l9,9v1h-1l-5-5l-1-1v-1h-2l-1-1v-1h-2l-1-1v-1h-2zm-45,1h1v5l-1,1h-1v4h-1c0,3,1,3,2,4l-1-2v-1l1-4h3v-2h1v4c-3,0-2,2-2,7l-1,2h-3c0,2,1,1,2,1l1,1v1l-1,2l1-1h1v2l-1,2h2v1h-2v3h-1l2,2v1h-4v-1l1-1l-2,1h-1v-2c4,0,2-1,1-3l-1-3v4h-1l-1-6v-1c2,0,2-1,3-2l-1,1h-1l-1-1v-1l1-2l-2,1h-1l-1-1v-2h1v2l1-1l3-1h1v-4l1-1h-2v5h-1l-1-2v-4h1l1,1l-1-2v-1h-1v1l-2,2h-1v2h-2v3h-1v-2l-1,2h-1v-7l1-3h1l-1-1v-1h1l1,1v-2h1l2,1c0,3,4,3,4,1l2-1h2zm-4,18h2v-1h-2z"/><path d="M87,96h1v3l1-2l1-1h1v2l-1,1h-1v7h-1c-3-1-2,0-2,5l-1,2h-1l1,5v7h-1l-1-1c0,2,1,2,3,4v1h-1l-2-2v-1h-2v-5h2v-3h-2v-4l1-1h1l-1-1v-11h1l1,1v-1l2-4zm-3,8v1h1v-1zm-1,2h1v-1h-1zm3-4h1l1,2v-3h-1l-1-1zm51-6h1l1,1v1h-1l-1-1zm-84,1h1v2h-1zm8,0h2v1l-1,1h-1zm-29,1h1v1l-1,2h-1v-2zm47,0h1v4l-1,2h-1v-5zm56,2h1l1,1l3,6v2h-1l-4-8zm-43,1h2v3h-1l-1-1z"/><path d="M86,121h1l1,1v1l-1,2h-1zm-12,1h1v8h-1c0-2-1-1-2-1v-5v1h-1v-1l1-1zm96,1h1l1,2v1h-1l-1-1zm30,0h1v2h-1zm-68,1h1v2h-1zm-56,2h1v2h-1zm5,1h1v4l1-1h1l1,1v1h-3l-1-1zm-5,2h1v2h-1zm-9,1h4v1h-4zm2,2h1l1,1v1h-1l-1-1zm-4,2h3l1,1v2h-1l-1-1v-1h-2zm15,0h2v1h-2zm-3,1h1v2h-1zm89,4h2v1h-2zm-91,1h1v1l-1,1h-1v-1zm3,0h1v2h-1zm82,0h1v1l-1,1l-3,1h-2v-1l2-1zm17,1h1l1,2v1h-1l-1-1zm-96,1h1l2,2v1l-2,2h-1l2,1l1,1v2h-1v-2h-3v-2l1-1h1l-1-1z"/><path d="M105,142h1l2,1v1l-2,2h-1ZM79,143h1v2h-1ZM103,144h1v2h-1ZM179,145h2v1h-2ZM194,147h4v2h-3l-1,-1ZM81,151h1l1,1v1l-1,1h-1v-1h1l-1,-1ZM84,152h1v2l-1,1h-1v-1ZM145,152h1v2h-1ZM167,155h1l3,1l1,1v1h-3l-3,-1v-1ZM85,157h3v1h-3ZM201,157h1l1,1l1,3v1h-1l-1,-1l-1,-3ZM129,160h2v1h-2ZM88,161h1v1l-1,1h-2v-1ZM164,162h1v1l-1,1h-1v-1ZM174,164h1v2h-1ZM229,165h1v1l-1,1h-1v-1ZM161,166h1l1,1v1l-1,1h-1ZM233,167h1l1,1v3l-2,2h-1v-1l1,-1h1l-1,-3ZM114,173h1v1h-1l1,1v1h-2v-2ZM225,174h1l4,1v1h-4l-1,-1Z"/><path d="M206,175h4v1l-3,1h-1zm-20,2h1l1,1v1h-1l-1-1zm43,2h2v1h-2zm-4,1h3v1h-3zm-55,1h5v1l-1,1h-1l-3-1zm-56,2h1v5l-1,2l1-1h1v2l-1,2l-1,1h-2v-3l1-3h1l-1-1v-1zm52,0h3v2l-2,2h-1v-1l1-1l-3,1h-7v-1c7,0,7-1,9-2zm19,0h1v2h-1zm-30,2h1v1l-1,2h-2l-1-1v-1zm-32,2h1v10l-2,1c-2,0-2,1-3,3h-2v-3h1l1,1v-1l1-3h1l1,2l-1-2v-4h1v2v-5zm16,0h1l1,2v1h-1l-1-1z"/><path d="M160,187h3v1h-3zm18,6h2v1l-1,1h-2v-1zm-9,3h1v1l-2,2h-6v-1c6,0,6-1,7-2zm-57,5h4v1l-2,1h-2zm-3,1h2v1h-2zm40,9h2v1h-2zm3,0h1l4,1l2,2v2h-1l-2-2v-1h-4zm6,7h1v2l-3,1h-2v-2h1c1,1,1,0,3-1zm46,1h2v1h-2zm-99,3h1v2h-1zm136,7h2v1h-2zm-135,6h1l1,1v1h-1l-1-1zm63,18h2l3,3c0,2,3,1,4,1v2c-3,0-3,1-5,2h-1v-1c1-3,0-3-1-4v-2h-2zm24,4h1v3h-2v-2zm-62,1h2l3,3v1l-2,1l2-1h1l1,1c0,2,1,2,2,3c0,2,1,2,3,4l2,2v2h2v1h10c1,1,1,0,3-1c2,0,2-1,3-2h2v3h-1l-1-1v4h-1l1,1v3l-2,1h-4l-3-1l-2-1l-4-2l-1-1l1,1v1h-1l-1-1v-1c1-1,0-1-1-2v-1l-2,1h-1v-1l1-2h-2c0-2-1-2-2-3v-1h-2l-1-1c0-2-1-2-2-3l-3-6z"/></g><g style="fill:rgb(119,68,92);fill-rule:evenodd;stroke:rgb(119,68,92);stroke-width:0.1;" id="l7"><path d="M51,103h1v1h-1l1,1v1h-1l-1-1v-1zm18,2h3v2h-3zm56,0h1l3,3v1h-1l-3-3zm-72,1h1l2,2v4l1-1h1v1l-1,1h-1l-1-1v-4l-1,2l-1,1h-1v-4zm13,0h1v3h-1zm91,1h1l1,3v1h-2zm-86,1h1v2h-1zm99,2h2v1h-2zm12,0h1l1,1v1h-2zm-129,2h1v3l-1,1h-2v-1h2zm16,0h2c0,2,1,2,2,3v1h-1l-2-1l2,2v3v-1h1v2l-1,2l-1,1h-1v2h-1l1,1v1l1-1h1v1l-1,1h-1l-2-2v-1h-5v-2l1-4h1l1,3v2h2q0,1,1-2h2v-2h-2z"/><path d="M194,119h1l2,2v3h-1c0-3-1-3-2-4zm-128,1h2v1h-2zm83,0h1c0,2,1,1,2,1v1l-2,2h-1zm23,3h1v5l-2,1h-2v-1l1-1c2,0,1-2,1-3zm44,0h2v1h-2zm-92,1h2v1h-2zm9,0h1l3,1v1h-4zm63,1h1v1l-1,1h-1v-1zm5,0h1l1,1v1h-1l-1-1zm-136,2h2v1l-1,2h-1l-1-1v-1zm129,1h1v1c-1,2,2,2,6,4v1h-2l-2-1v-1h-3l-2-1v-1zm-127,1h2v1h-2zm47,0h1v1l-1,1h-1v-1zm50,0h2v1h-2zm-6,1h4v1h-4zm-93,1h2v3h-1l-1-2zm3,0h3v1l-2,1h-1zm84,1h3v1h-3z"/><path d="M202,133h2v1h-2zm-135,3h1v2l-1,1h-1v-1zm53,0h1v2h-1zm-38,1h1l2,2v1h-1l-2-2zm86,1h3v1h-3zm-97,2h1v1l-1,1h-1v2h-1v-2zm33,0h1v2h-1zm57,0h2v1h-2zm25,0h1v3c-3,0-3,1-4,2h-1v-4zm-103,1h1v3h-1zm72,0h1v1l-1,1h-3v-1zm24,1h1l1,1v1h-1l-1-1zm14,0h3c0,2,1,2,2,3v1h-1c-1-1-1,0-3,1h-1l-1-1v-1l2-1h1l-2-1zm-69,1h1v1l-1,1h-1v-1zm-51,2h1v3h-1zm10,0h1l1,1v1h-1l-1-1v2h-1v-2zm28,0h1v4h-1zm10,0h1v1l-2,2h-1v-1zm-16,1h1v1l-2,2h1l1,1v1h-1l-1-1v-1h-2l-1-1v-1z"/><path d="M97,147h3v1l-3,1h-1v-1zm103,0h1v2h-2v-1zm-106,2h1v2l-1,1h-1v-1zm22,0h1v1l-1,1h-2v-1zm14,2h1v2l-2,1l-3,1h-1v-1l1-1zm14,0h2v1l-1,2l-1,1c-2,0-2,1-3,2h-2v-1c2,0,2-1,4-3h1zm3,1h2v1h-2zm-17,2h1v2h-1zm-7,1h1v1l-4,4h-1l1,1v2h-1l-1-2v-2c2,0,2-1,5-4zm-46,1h1l2,2v1h-1l-2-2zm55,0h2v1h-2v2l-1,1h-1v-2zm-46,2h1v2h-1zm79,4h2v1h-2zm3,1h5v1l-2,1h1l2,1v1h-2l-1-1v-1h-2l-1-1zm54,0h1v2l-2,1h-1l1,1v1h-1l-1-1v2h-1v-2z"/><path d="M114,164h2l1,1v1l-1,3h-1l-1-2zm50,0h2v1c-2,0-2,1-3,2h-1v-2zm65,0h1v1l-1,1h-3v-1zm-85,3h9v1l-1,1c-3,0-3,1-4,2h-1v-1l2-2h-5zm-31,1h1l1,3v2c-3,0-3,1-5,3h-1v-1l3-3c2,0,1-1,1-4zm41,0h2l1,1v1h-1l-2-1zm14,0h1l1,1v2h-1l-1-2zm-4,2h1v2h-1zm64,3h2v1h-2zm-143,1h1v2h-1zm60,0h1l1,1v1h-1l-1-1zm62,2h6v1h-3v3h-1c0-3-1-2-3-2v-1zm7,1h2l6,2v1h-3l-3-1l-2-1zm-8,2h2v1l-1,1h-1z"/><path d="M231,179h2v1h-2zm3,0h2v1h-2zm-30,1h1v1l-1,2h-1v-2zm19,0h2v1h-2zm-54,2h4v1l-2,1h-2zm33,2h1v1l-2,2h-1v-1zm-46,1h11v1l-2,2h-2l-8-1v-1zm42,4h1v1l-4,4h-1v-1zm-57,2h1l2,2v1h-1l-2-2zm6,0h2l1,1v1h2v1h-2l-1-1v-1h-2zm22,0h4v1h-4zm12,0h1v1l-1,1h-1v-1zm-25,1h1l1,1v1h-1l-1-1zm9,0h1v1l-1,1h-1v-1zm-12,1h2v1h-2zm-54,1h1l1,1v1h-1l-1-1zm22,1h1v2h-1zm75,0h1v1l-1,1h-1v-1zm-30,2h2v1h-2zm24,0h1v1l-2,2h-1v-1z"/><path d="M122,198h2l1,1v1h-5v-1zm37,0h3v1l-1,1h-1l-1-1zm-52,1h2l1,1v2l-1,1h-1l-1-3zm9,2h1v1l-2,2l-3,1h-2v-2l1-1h1c2,1,2,0,4-1zm11,0h1l1,1v1h-1l-1-1zm98,2h1v1l-3,3h-1v-3h1c1,1,1,0,2-1zm-43,1h1v1l-1,1h-2v2l-2,2h-4l-3-1v-1l4-1c3,0,3-1,4-2zm19,1h2v1h-2zm-62,2h2v1h-2zm4,1h2v1h-2zm82,0h1v2h-1zm-77,1h6l1,1v1h2l3,3v3h-1c0-3-1-3-2-4v-1h-4v-1l1-1h-2v2h-1l-5-1v-1z"/><path d="M163,209h4v1h-4zm27,2h1v2h-1zm36,1h1v6l-2,4h-1l1,2v1h-1l-1-1v-2l1-2l-1,2l-2,1h-2v-1l2-2h2v-2l1-1l1-1h1zm-67,6h1v2h-1zm36,0h2v1h-2zm6,1h3v1h-3zm-45,1h2v1h-2zm51,0h6v1h-6zm9,1h2v1h-2zm-69,1h3v1h-3zm-7,2h2v1h-2zm-3,1h2v1h-2zm89,0h1l1,1v1h-1l-1-1zm-118,1h2v1h-2zm85,0h1l1,1v9h-1l-1-7zm-60,1h1v1l-1,1h-1v-1zm13,2h1v2h-1zm-18,2h1v1l-1,1h-1v-1zm14,2h2v1l-2,2h-2v-1z"/><path d="M233,234h1l1,1v1h-1l-1-1zm3,2h2v1h-2zm-42,1h1v2h-1zm-74,3h1v4h-1l-1-1v-1zm74,0h1v2h-1zm-81,2h1l1,1v1h-1l-1-1zm3,1h2v1h-2zm78,0h1v4h-1zm-75,3h1v1l-1,1h-1v-1zm38,0h1l1,1v1h2v2h-2l-1-1l-1-2zm37,4h1v2h-1zm-68,2h1l2,2v2h-4v-1c3,0,1-2,1-3zm45,0h2l6,2l2,1v1l-1,2l-1,1h-1c0-2-1-1-4-1c0-2-1-2-3-4zm22,1h1l1,1v1h-2zm-73,8h1l1,1v1h-1l-1-1zm14,1h2l1,1l1,2v1h-1l-1-1v-2h-2zm-9,2h2l2,2v1h-1l-1-1v-1h-2zm51,1h2v1l-3,3h-1v-1l1-1h1z"/></g><g style="fill:rgb(218,42,132);fill-rule:evenodd;stroke:rgb(218,42,132);stroke-width:0.1;" id="l8"><path d="M157,0h1v1h-1zm3,2h2v1h-2zm-27,1h2v1h-2zm34,0h2v2h-1l-1-1zm20,0h1l1,1v1h2v1h-2l-2-1zm14,0h2v2h-3v-1zm-53,2h3v3h-1l-2-2zm18,0h1l1,1v1h-1l-1-1zm15,0h1v2l-1,1h-1v-1zm-19,1h2v2h-1v-1l-1,1h-1v-1zm13,1h1l1,1v3h-1l-1-1v-1l1-1l-1,1h-1v-1zm-31,1h1v2h-3v-1zm22,1h1v2h-1zm35,1h2v1h-2zm-116,1h1v1l-1,1h-1v-1zm103,0h1l2,2v1h-1l-2-2zm-108,2h2v1h-2zm13,0h1l1,2v1l-1,1h-1zm12,0h1v2h-1zm89,0h1v1h-1l1,1v1h-1l-2-1v-1zm-29,1h1v2h-1zm-54,1h2v2h-1l-1-1z"/><path d="M158,15h6v1l-2,2l-2,1c-2,0-2,1-6,5l-2,1h-2v-1l2-2l-2,2h-2l2,2v1h-1v-1h-3v4c-2,0-1,1-1,3l-1,2h-1l-1-3l-1-6v-1l1-1c3,0,3-1,5-3c2,0,2-1,3-2h2v-2h1c2,1,2,0,3-1zm-5,7v-1h-1v1zm-57-6h1v1l-1,1h-1v-1zm104,0h3v1h-3zm4,1h1v1l-1,1h-2v-1zm-131,1h1v1l-1,1h-1v-1zm2,0h1v2h-1zm90,0h1v1l-1,1h-2v-1zm-97,5h1v2h-1zm91,0h2v1l-1,1h-1zm-94,3h2v1h-2zm12,1h34l1,1v1h2l2,1l1,2l1,3v2h-1v-2h-2l-1-1v-1h-2l-1-1v-1c-3,0-2,2-2,3h-4l-5-1l-3-1v-1l-4,1c-6,0-6,1-1,1v1h-2c0,2,1,1,2,1l1,1v2h-2l-1-1v-1h-2l-4-2v-1l-2,2h-3v-1l1-1c-8,0-8,1-12,2h-2v-1l3-3c5,0,5-2,6-3zm5,4v-1l1-1h-1l-1-1l1,1zm8,0h1l-2-2l1,1zm2,0h1v-1h-1zm-10,2h-1v1h1z"/><path d="M156,29h1v2h-1zm-2,3h1v2h-1zm48,2h1v1l-1,1h-1v-1zm-92,1h1l1,1v1h-1l-1-1zm90,3h1v3h-1zm10,1h1l2,1v1h-2l-1-1zm-137,4h1v1l-1,2h-1v-2zm129,1h1v2h-1zm-154,3h1v1l-1,1h-1v-1zm7,0h2v1h-2zm24,0h1c0,2,1,1,3,1l5,1l1,2v1h-2v2l-3,1h-2l-2-1v-1l-1,1h-3l-6-1v-2l-1,2h-1l-1-2v-1l1-1l2-1zm7,4v1h1v-1zm-37-2h1l1,1v1h-1l-1-1zm-9,1h1v1l-1,1h2v1l-2,1h-1v-3zm167,2h1l1,1v1l-1,1h-2v-1c2,0,1-1,1-2zm-171,1h2v1l-1,1h-1zm20,3h1v2h-1zm-6,3h1v1l-1,2l-1,1h-1v-1l1-2z"/><path d="M52,59h1l1,1v1h-1l-1-1zm24,1h1v1l-1,1l2-1h4l3,1v1h5l2,1v2l-3,3h-1l-1-1l1,1v1c-2,0-2,1-3,2l-2,1c-2,0-2,1-3,3h-1c-2-1-2,0-3,1h-2l-1-1v-1c1-1,0-1-1-2v-1l-3,1c-4,0-4,1-7,2h-2v-1l1-1l2-1l4-1c3,0,3-1,5-2h-1v-1l-2,1l-5,1c-3,0-3,1-5,2h-1v-2l3-1h1v-2l-2,2h-4v-1c2,0,2-1,3-2c5,0,5-1,7-2l3-1c5,0,5-1,7-3zm-4,11v1h1v-1zm139-7h1l1,1v1h-1l-1-1zm-164,3h1l1,1v1l-1,1h-1v-1h1l-1-1zm-10,1h1v1l-1,1h-1l1,1v1h-1l-1-1v-1z"/><path d="M45,69h1v2l-1,1h-1v-2ZM56,74h1l2,1v1l-1,1l-2,1h-1v-1l1,-1h1l-1,-1ZM31,76h1v2h-1ZM39,76h1v2h-2v-1ZM82,77h1l2,2v1l-2,2h-1v2l-1,1h-1l1,3v1l-1,1c-2,0,-2,1,-3,3h-1l1,2v3l-1,1h-1v-1l1,-1l-1,1h-2v-4l-1,1h-1l-1,-1v-1l1,-2l-4,2h-1v-2l1,-1c2,0,2,-1,3,-3h1l1,1v-2h-2v-2c3,0,3,-1,4,-2h1v-2l1,-2ZM29,78h1l1,1v1l-1,1h-1ZM53,78h1v2l-1,1c-2,0,-2,1,-3,2c-2,0,-2,1,-3,2h-1v-1l5,-5ZM73,78h1v1l-1,1h-1v-1ZM44,85h1v1l-1,1h-1v-1Z"/><path d="M31,105h1v1l-2,2h-1v-1zm59,12h1v3h-1zm38,10h4v1q-3,1,5,1v1c-1,1,0,1,1,2v1l-1,1h-1l-1-3v3h-1l-1-1v-1h-2l-2-1v-2h-3v-1zm17,0h1l1,1v1h2l3,3v1h-1l-3-1c0-2-1-1-2-1v-1c1-1,0-1-1-2zm-60,2h1l2,2v1h-2l-1-2zm36,0h4v1c-2,0-2,1-3,2h-1v4c-1,2,0,2,1,4v1h-2v-3l-1,2h-1l-1-1v2l-1,6l-2,2h-1l-1-2v-2c1-2,0-2-1-3v-3l1-2l3-3h1v-2l1-1c3,0,3-1,4-2zm-7,13h1v-2h-1zm-7-5h1v2h-1z"/><path d="M82,139h1l1,1v1h-2zm23,0h1l1,1v1h-1l-1-1zm61,5h6v1c-3,0-1,2-1,3l1-1h1l2,2c0,2,1,2,3,3l1,1v1h-2l-2-1l-2-2v-1h-2v-1l-2,1h-1c0-3-1-1-3-1l-3-1l-1-1v-1l1-1h2l2,1zm-10,4h1l4,1c0,2,1,2,2,3v1h-1l-1-1v-1h-2v2l-1,1h-1l-1-1zm-70,6h1v2h-1zm73,0h2l4,4v1h-1l-1-1v-1h-2l-2-2zm8,6h5l4,1v1l1-1h1v2h-2l-9-1zm18,1h3v1h-3zm-37,1h5l2,1v1h-2l-4-1v2h-1c-1-1-1,0-2,1h-1v-1z"/><path d="M154,165h2v2h-2zm71,0h1l1,1v1h-1l-1-1zm-6,6h4v2h-6v-1zm7,0h2l2,1v1h-2c-1-1-1,0-3,1h-1v-2zm8,0h1l2,1v1h-2l-1-1zm-23,1h1v1l-1,1h-1v-1zm28,0h1v1l-1,2h-1v-2zm-1,4h1v2h-1zm-66,1h5v1l-2,1c-5,0-5,1-8,2c-4,0-4,1-7,2h-1l-1-1v1c-3,0-3,1-5,2l-3,1h-1v-2l1-1l6-2h5v-1c3,0,3-1,4-2zm59,0h2v1h-2z"/></g><g style="fill:rgb(164,196,205);fill-rule:evenodd;stroke:rgb(164,196,205);stroke-width:0.1;" id="l9"><path d="M183,119h2l1,2v2l-2,2h-1l-1-1v-3zm-37,3h1l1,1v1h-1l-1-1zm67,1h3l6,3l1,1l1,2v1l1-1h1v1l-1,2h-1c0-2-1-2-3-3v-2h-4c-1-1-1,0-2,1c-2,0-2,1-5,4h-1v2l-1,2l-1,1h-1v2h-1v-2l1-3l1-2h1v-3c2,0,2-2,3-4zm-73,2h2l1,1v6l-4,4h-1v2h-1v-2l1-5l1-4zm1,3h1v-2h-1zm-16,2h2v1h-2zm68,2h1l3,1v2h-2l-2-1zm-19,1h3v1l-1,1h-1l-1-1zm-65,9h2l1,1v2l-2,2h-1v4h-1v-8z"/><path d="M130,145h2l1,1v1l-3,3l-3,1h-4v-2l2-2l2-1zm13,0h1l3,1l1,1l1,2v2h-2l-1-1v-1h-2l-1-1zm-53,16h2l2,1v1h4l2,1l1,1v1c3,0,3-1,4-2h3v2l-2,2l-2,1h-1l-2-2c0-1-2-1-5-2v-1c-6,0-6,1-7,2h-1v2l-1,2h-1l-1-1v-1l1-1h1v-4h3zm27,1h1l2,1v1l-2,2h-1l-1-2v-1zm49,2h3l2,1l2,2v4l-1,2h-2c0-4-1-4-2-5v-1c-3,0-3,3-4,6h1l1,1v1h-1l-2-1l-1-2v-4l1-2l1-1z"/><path d="M152,168h1l4,2l1,2v5l-1,1h-1v-1c1-4,0-4-1-5v-1c-3,0-3,1-4,3h2v1c-2,0-2,2-1,2l2,1v1h-5l-2-2v-6l2-2zm26,17h2v2l-2,2h-1l-1-1v1c-2,0-2,1-3,2l-4,1h-1v-2l1-1c3,0,3-1,5-2h1c1,1,1,0,3-2zm-29,6h7v2l-3,1h-1l-2-1l-1-1zm8,0h9v1l-2,2h-6l-1-1zm18,5h1v1l-1,1h-1v-1zm54,0h2l2,1l1,1v2h-1l-2-1v-1l-1,1h-2v-2zm-61,2h5v1l-2,1l-3,1l-4,1h-7l-2-1v-1l2-1h1l2,1c1,1,1,0,3-1z"/><path d="M235,199h1v2h-1zm-124,6h2v1l-2,2h-1v-2zm106,1h2v1l-1,1h-1zm3,1h3v1h-3zm15,0h1v2h-1zm3,2h1l1,1v1l1-1h1v1l-1,1h-4l-1-1v-1zm-51,3h1v2l-1,1h-4v-2zm-78,6h1v2l-2,1h-2v-2zm130,0h4v1l-1,2h-1l-2-2zm-84,12h1l2,2v1l-1,2l-1,1h2l2,1v2h-4l-1-1v-1c-1,2,0,2,1,3c0,2,1,2,3,4v1l9-1h2l1,1v-2h-7l-1-1v-3h4l1,1v-3l1-2l1-1h3l2,2v4l-3,3l1-1h2l2,1v3h-4c-2-1-2,1-1,1l2,2v1h2v1c7,0,7-1,9-2h1l1,2c0,2,1,2,3,4v1l1-1h1l1,1v1l-1,3h-2l-2-1v-1h-3l-6-3v-1h-3l-3-1v-1h-4l-3-1l-2-1v-1h-3l-2-1l-1-1v-1h-2l-2-1l-1-1v-1h-2l-4-2v-1l-14,1h-1v-2l1-1h1l5,1v-1c2,0,2-1,3-2h6l-1-1v-1l1-1h1c3,1,3,0,4-2zm-2,5h-1l2,2l-1-1z"/><path d="M126,238h4l1,1v1h-4l-1-1zm59,2h4v5c-1,2,0,2,1,3v2h-2l-1-1v-2l-1,1l-3,1h-1l-2-1l-1-1v-1l1-1h4l1,1l-1-2v-2zm7,9h1v2h-1z"/></g><g style="fill:rgb(109,21,42);fill-rule:evenodd;stroke:rgb(109,21,42);stroke-width:0.1;" id="l10"/><g style="fill:rgb(47,109,82);fill-rule:evenodd;stroke:rgb(47,109,82);stroke-width:0.1;" id="l11"><path d="M171,128h3l1,1v1h2v2h-4c0-2-1-2-2-3zm1,6h1l4,1v1l-2,1l-10,2c-5,0-5,1-8,2l-5,1h-2v-1l2-2h1c2,1,2,0,6-1l5-1h5v-1c2,0,2-1,3-2zm25,1h2v1h-2zm6,2h1v2l-1,3l-1,1h-2l-3-1v-2l3-1c2,0,2-1,3-2zm-79,7h4v1l-1,1l-2,1h-4v-1l1-1zm2,7h2v1c-2,0-2,1-4,3l-2,1c-2,0-2,1-3,2h-1v2h-1c0-4-1-4-2-7v-1h2l2,2v1c3,0,3-1,5-3zm34,43h2v1h-2z"/><path d="M180,256h1l3,1l1,1v1h-6v-1z"/></g><g style="fill:rgb(146,27,64);fill-rule:evenodd;stroke:rgb(146,27,64);stroke-width:0.1;" id="l12"><path d="M189,9h3v1h-3ZM97,18h2v1h-2ZM189,32h1l1,1v1h-1l-1,-1ZM40,64h1v2h-1ZM165,64h1v1l-2,2h-1v2h-1v-2ZM38,76h1v1l-1,1h-1v-1ZM51,90h2v1h-2ZM167,120h1l2,2c0,3,1,3,2,4v1h-2l-1,-1l-2,-4ZM203,130h1v3h-1ZM164,139h2v1h-2ZM171,139h3l2,1l1,1v1h-1l-2,-1v-1h-3ZM178,141h1c0,2,1,2,3,3v1l2,-2h5l1,1v1h-1l-3,-1v2h-5l-2,-1l-1,-2ZM152,143h2v1l-2,1h-1v2h-3v-1h2v-2ZM196,145h1l2,2v1h-1l-4,-1v-1ZM129,153h2v1l-2,1h-3v-1Z"/><path d="M116,166h1v2h-1zm-2,1h1l1,2v2l-2,1h-1v-1zm116,5h2v1l-1,1h-1zm-117,15h1l1,1v2h-1l-1-2zm9,3h1v3h-1zm53,4h2v1c-2,0-2,1-3,2h-4v-1l2-1zm-56,3h1v1l-1,1h-1v-1z"/></g><g style="fill:rgb(191,144,190);fill-rule:evenodd;stroke:rgb(191,144,190);stroke-width:0.1;" id="l13"><path d="M89,13h1v2h-1zm57,0h2v1h-2zm-9,107h2v1h-2zm13,0h4v1l-3,1h-1zm-2,1h1v3h-1l-1-1v-1zm-4,2h1v2h-7v-1zm72,3h1v2h-1zm3,1h2v1h-2zm-7,2h1v1l-1,1h-1v2h-2v-1zm10,0h1l1,1v1h-1l-1-1zm-95,1h2v1h-2zm19,1h2v1h-2zm-14,1h1l2,2v1h-1l-2-2zm76,2h1v2h-1zm-3,5h1v1l-1,1h-1v-1zm5,10h1l1,2v1h-1l-1-1zm-117,15h3l3,1l2,1l1,1v1h-2l-1-1v-1h-5l-1-1zm-4,1h1v1l-1,1h-1v-1zm-3,5h1v2h-1zm20,3h1l1,2v1h-1l-1-1zm25,3h2v2h-3v-1z"/><path d="M134,176h2v1l-1,1h-1zm3,1h2v1l-1,1h-1zm90,26h1v1l-1,2h-2v-1zm-4,3h1l1,1v2h-1l-1-1zm-5,1h2v1h-2zm22,5h3v1h-3zm-130,6h2v1l-1,1h-1zm128,7h1v3h-1zm-123,8h1v1l-1,1h-1v-1zm18,7h7v1h-7z"/></g><g style="fill:rgb(229,50,136);fill-rule:evenodd;stroke:rgb(229,50,136);stroke-width:0.1;" id="l14"><path d="M173,5h2v1h-2zm-66,6h1l1,1v1h-1l-1-1zm-34,15h2v1h-2zm133,14h2v1h-2zm-9,79h1v1l-1,1h-1v-1zm-54,11h2v1h-2zm-72,15h1v2h-1zm83,9h1v2h2v2h-1l-2-1zm-66,6h1v1l-1,1h-1v-1zm98,5h1l1,1v1h2l1,2v3h-2v-3h-1c0-2-1-2-2-3zm-1,5h3v3c-5,0-5,1-6,2h-3v-1l2-2h4zm-42,4h1l1,1v1h-1l-1-1zm-8,7h2v2l2-2h1l1,1v1l1-1h2v2h-7v2h-1c-1-1-1,0-2,1l-3,1h-1v-3l2-2h4l-1-1zm58,74h2v1h-2z"/></g><g style="fill:rgb(208,87,148);fill-rule:evenodd;stroke:rgb(208,87,148);stroke-width:0.1;" id="l15"><path d="M155,1h2v1h-2zm58,22h1v1l-1,1h-1v-1zm2,3h1v2h-1zm-17,7h1l1,1v1h-1l-1-1zm-157,16h2v1h-2zm148,65h1l1,1v1h-1l-1-1zm-42,2h1v1l-1,1h-1v-1zm42,2h4v1h-4zm-11,1h2v1h-2zm-45,7h3v1h-3zm-8,3h4v1l-4,1h-2v2l-1,1h-1v-2l2-2zm82,1h1v1l-1,1h-1v-1zm19,4h1v2h-1zm-41,31h1l1,1v1h-1l-1-1zm38,0h1v2h-1zm-63,1h1v2h-1zm27,3h2v2h-1l-1-1zm-6,2h1v1l-2,2h-1v-1zm-20,8h3v1l-3,1h-3v-1zm-24,2h2v1l-1,1h-1zm3,0h1l1,1v1h-1l-1-1zm-11,3h2v1h-2zm97,14h1v2h-1zm-2,17h1v2h-1z"/></g><path d="M90,104h1v3h-1ZM70,107h2v1l-1,4h-1ZM53,110h2v2h-2ZM179,110h2v1h-2ZM58,115h2v1h-2ZM71,118h1v2h-1ZM85,125h1v2h-1ZM82,127h1v2h-1ZM175,136h3l4,4v1h-1l-4,-1l-3,-1v-1h-4v-1ZM76,137h1l1,2v5h-1l-1,-5ZM165,138h3v1h-3ZM160,139h4v1c-4,0,-4,1,-7,2h-1v-1l1,-1ZM152,141h3v1l-3,1c-2,0,-2,1,-4,3h-1l-2,-1v-1l1,-1l2,-1ZM189,141h2l2,1v1h-2l-2,-1ZM198,142h2l2,1v1l-1,1h-1v-2h-2ZM128,151h2v1l-2,1c-2,0,-2,1,-3,2h-1v-1l2,-2Z"/><path d="M122,155h1v1l-3,3h-2v-1l2,-2ZM164,163h4v1l-4,1h-1v-1ZM171,164h3v2h-2l-1,-1ZM221,165h1v2l-2,1h-1v-1ZM149,167h3v1c-3,0,-3,1,-4,2h-1v2l-1,2h-2l-1,-1v-3h2v-2ZM166,168h2l1,1v3l-1,1h-3v-4ZM112,170h1v2h-1ZM152,172h3l1,1v3l-1,1h-3ZM184,181h2v2l-1,3l-2,4l-2,2c-4,0,-4,1,-6,2c-4,0,-4,1,-5,2l-3,1l-7,1c-4,0,-4,1,-5,2h-1l-4,-1l-4,-2l-2,-2c0,-2,-1,-2,-3,-4l-1,-2v-1h2l2,1l2,2v1h3l1,1v1l5,-1h2l3,1c2,1,2,0,5,-1h1v-3h1l1,1v1c5,0,5,-1,8,-4h1c1,1,1,0,3,-2h1v-2Z"/></svg>